<?xml version="1.0" encoding="UTF-8"?>
<svg version="1.1" xmlns="http://www.w3.org/2000/svg" width="1801" height="551">
<path d="M0 0 C1.71678955 0.00845947 1.71678955 0.00845947 3.46826172 0.01708984 C30.59213051 0.40528748 53.3758209 11.20140652 72.25 30.3125 C72.93707031 31.00085938 73.62414063 31.68921875 74.33203125 32.3984375 C94.70006334 54.19177207 99.93870169 84.0850717 99.33886719 112.70996094 C98.41566259 139.74666695 86.16132453 164.33782095 67.25 183.3125 C46.5732494 202.37442797 20.34326539 209.25994883 -7.18115234 208.44433594 C-33.47965735 207.09466927 -56.822158 194.23148317 -74.38867188 174.90332031 C-93.97393541 152.01638035 -100.44657428 121.91999726 -98.28515625 92.45703125 C-96.24948439 70.53346221 -88.08832783 50.07689471 -73.75 33.3125 C-73.13382813 32.55066406 -72.51765625 31.78882813 -71.8828125 31.00390625 C-54.33414689 9.99647875 -26.80935517 -0.13882637 0 0 Z M-42.94140625 59.84375 C-55.0112853 75.41778748 -59.58175354 94.84944717 -57.28125 114.26953125 C-55.34988341 127.87871279 -51.13714648 139.96050763 -41.75 150.3125 C-41.17894531 150.98667969 -40.60789062 151.66085937 -40.01953125 152.35546875 C-30.95601445 162.34659495 -17.94682967 168.78769269 -4.5234375 169.62109375 C11.68938269 170.25215747 25.78020358 165.77258516 38.375 155.3125 C50.60265432 143.68748047 57.80286659 127.55718845 58.48828125 110.6953125 C58.91921178 90.49352002 54.93896117 71.96235227 41.4375 56.25 C31.34381503 45.95536878 18.40316145 39.24602397 3.921875 39.078125 C2.53742188 39.07039063 2.53742188 39.07039063 1.125 39.0625 C0.22523437 39.041875 -0.67453125 39.02125 -1.6015625 39 C-18.39872021 38.90346461 -32.14792605 47.37641458 -42.94140625 59.84375 Z " fill="#FFFFFF" transform="translate(1545.75,186.6875)"/>
<path d="M0 0 C21.36265299 18.03568244 34.92405937 42.09085022 37.8125 70.1875 C39.49711194 104.7517035 32.72128822 133.21706779 9.625 159.6953125 C-6.80050108 177.02663166 -31.05018987 187.62441371 -54.8671875 188.390625 C-81.85628809 188.80077003 -107.04939355 182.40217373 -127.04296875 163.33837891 C-128.4375972 161.96797595 -129.81287684 160.57796896 -131.1875 159.1875 C-131.99960937 158.38570312 -132.81171875 157.58390625 -133.6484375 156.7578125 C-152.09137949 137.55952818 -159.61570518 110.43975885 -159.5 84.4375 C-159.49784485 83.77730865 -159.4956897 83.11711731 -159.49346924 82.43692017 C-159.33265443 51.70688395 -148.78125989 26.30847969 -127.0234375 4.58862305 C-93.16016173 -27.82351915 -36.37431545 -28.04212629 0 0 Z M-103.1875 38.1875 C-115.79049712 53.85636092 -120.69018692 73.80474937 -118.72265625 93.68359375 C-115.76859594 113.02514193 -107.99695512 128.32334158 -92.3125 140.125 C-79.08929562 148.77826494 -63.7164838 151.22134291 -48.3125 148.50390625 C-32.32280925 144.27856034 -19.59766212 134.44820967 -11.1875 120.1875 C-2.08527852 103.54556372 -0.22266139 83.02991449 -4.75 64.625 C-9.68930508 47.93769499 -18.31379086 34.4924366 -33.4765625 25.5859375 C-57.65747812 13.11220869 -84.69990092 18.11020291 -103.1875 38.1875 Z " fill="#FFFFFF" transform="translate(825.1875,206.8125)"/>
<path d="M0 0 C15.8640033 13.3707393 23.78460533 32.29672772 26.26148796 52.59750366 C26.70372766 57.78437025 26.60157568 62.98958017 26.58618164 68.19140625 C26.58632767 69.48979935 26.58647369 70.78819244 26.58662415 72.12593079 C26.58690958 75.66461445 26.581054 79.20326381 26.57405019 82.74193954 C26.56777428 86.44815647 26.56720951 90.15437429 26.56602478 93.8605957 C26.56292392 100.86915674 26.55472738 107.87770208 26.54467529 114.88625622 C26.5334754 122.86935901 26.52799395 130.85246258 26.52297986 138.83557129 C26.51254367 155.2484644 26.49421375 171.6613359 26.47265625 188.07421875 C13.27265625 188.07421875 0.07265625 188.07421875 -13.52734375 188.07421875 C-13.54921753 182.64057861 -13.54921753 182.64057861 -13.5715332 177.09716797 C-13.62200647 165.09106143 -13.68847651 153.0850926 -13.76305866 141.07911491 C-13.80786458 133.80422294 -13.84731344 126.52937826 -13.8737793 119.25439453 C-13.89688344 112.90733171 -13.9304176 106.56042048 -13.97604531 100.21347821 C-13.99981212 96.85837042 -14.01709119 93.50354708 -14.02495766 90.14834213 C-13.9878421 61.92904254 -13.9878421 61.92904254 -25.77734375 36.69921875 C-35.76274922 27.16769535 -47.97497768 23.84881557 -61.52734375 24.07421875 C-75.10964975 25.60461943 -86.21325412 29.86626256 -95.52734375 40.07421875 C-102.01979635 48.90915982 -106.60655801 59.29575618 -106.68556213 70.345047 C-106.70024536 71.9077684 -106.70024536 71.9077684 -106.71522522 73.50205994 C-106.72098068 74.6342244 -106.72673615 75.76638885 -106.73266602 76.93286133 C-106.74256561 78.13328064 -106.75246521 79.33369995 -106.76266479 80.57049561 C-106.78879998 83.85314025 -106.81068365 87.13577999 -106.83066678 90.41846681 C-106.85257973 93.85246498 -106.87994237 97.28641965 -106.90672302 100.72038269 C-106.95657828 107.21902234 -107.0015436 113.71768623 -107.04474539 120.21637315 C-107.09417913 127.61661882 -107.14907444 135.01682084 -107.20442498 142.41702425 C-107.31813497 157.63605025 -107.42427686 172.85511639 -107.52734375 188.07421875 C-121.05734375 188.07421875 -134.58734375 188.07421875 -148.52734375 188.07421875 C-148.52734375 122.07421875 -148.52734375 56.07421875 -148.52734375 -11.92578125 C-135.98734375 -11.92578125 -123.44734375 -11.92578125 -110.52734375 -11.92578125 C-110.03234375 -1.53078125 -110.03234375 -1.53078125 -109.52734375 9.07421875 C-108.26921875 7.73359375 -107.01109375 6.39296875 -105.71484375 5.01171875 C-77.90307766 -22.66988307 -30.64490471 -23.35075428 0 0 Z " fill="#FFFFFF" transform="translate(1380.52734375,202.92578125)"/>
<path d="M0 0 C13.53 0 27.06 0 41 0 C41.01458252 3.65271973 41.02916504 7.30543945 41.04418945 11.06884766 C41.0946605 23.17473833 41.16113012 35.2804924 41.23571491 47.38625526 C41.28052275 54.72168152 41.3199712 62.05706085 41.34643555 69.39257812 C41.36953811 75.79237794 41.40307058 82.19202736 41.44870156 88.59170759 C41.47247017 91.97472065 41.49130524 95.35758629 41.49761391 98.74068069 C41.15686211 128.11685619 41.15686211 128.11685619 54.6875 153.4375 C65.26058224 163.21607317 77.99727953 163.68444136 91.57275391 163.18359375 C101.77494099 162.41191354 114.06983072 156.64899003 121 149 C130.50143805 136.51894432 133.12513814 123.63543742 133.20532227 108.30322266 C133.21522186 107.13191803 133.22512146 105.9606134 133.23532104 104.7538147 C133.26685394 100.89058438 133.29166109 97.02734177 133.31640625 93.1640625 C133.33698286 90.48220405 133.35793277 87.80035112 133.37937927 85.11849976 C133.42919911 78.78634888 133.47417745 72.45417331 133.51740164 66.12197435 C133.56686581 58.91033502 133.62174976 51.69874009 133.67708123 44.48714375 C133.79073678 29.65813688 133.89689593 14.82908433 134 0 C147.2 0 160.4 0 174 0 C174 66 174 132 174 200 C160.8 200 147.6 200 134 200 C133.67 193.07 133.34 186.14 133 179 C131.453125 180.65 129.90625 182.3 128.3125 184 C115.42120068 197.11487034 98.78543533 203.93317678 80.44189453 204.24145508 C58.24189255 204.3211801 37.81975368 198.81198017 21.19140625 183.34375 C4.50499516 165.49732103 -0.18429165 142.7033085 -0.11352539 118.97460938 C-0.11367142 117.68596985 -0.11381744 116.39733032 -0.1139679 115.06964111 C-0.11425331 111.55781599 -0.10839809 108.04602543 -0.10139394 104.5342083 C-0.09511766 100.85601861 -0.09455323 97.17782801 -0.09336853 93.49963379 C-0.09026778 86.54419664 -0.08207139 79.58877532 -0.07201904 72.63334513 C-0.06081881 64.71070069 -0.05533762 56.78805547 -0.05032361 48.86540508 C-0.03988767 32.57692601 -0.02155788 16.28846873 0 0 Z " fill="#FFFFFF" transform="translate(1001,191)"/>
<path d="M0 0 C6.02743072 5.53190204 11.15438863 10.92939125 14.61328125 18.3984375 C13.96480225 19.00147705 13.96480225 19.00147705 13.30322266 19.61669922 C4.93233968 27.40951325 -3.38522585 35.22383538 -11.38671875 43.3984375 C-14.92403457 42.21933223 -15.45499244 41.2433746 -17.57421875 38.2734375 C-25.56005845 27.77538573 -36.18681997 20.64450898 -49.38671875 18.3984375 C-52.70515893 18.11397043 -55.99498158 18.07325952 -59.32421875 18.0859375 C-60.16662109 18.06982422 -61.00902344 18.05371094 -61.87695312 18.03710938 C-70.34549753 18.0305901 -77.67773609 19.8409828 -83.9453125 25.73046875 C-87.12108145 29.40541005 -88.22114254 33.09748155 -88.82421875 37.8359375 C-88.25480448 42.47259656 -87.21960584 45.66885117 -84.38671875 49.3984375 C-78.00816463 54.24152616 -70.82982614 56.95672319 -63.26171875 59.3359375 C-62.22982422 59.67165771 -61.19792969 60.00737793 -60.13476562 60.35327148 C-53.77449734 62.39936324 -47.37567936 64.27946302 -40.9465332 66.09570312 C-20.24691727 71.94900552 1.04568732 79.57491339 12.2578125 99.4140625 C18.9680668 114.1882247 19.79805022 131.02088408 14.61328125 146.3984375 C7.91067429 162.36009447 -5.62193025 174.23031913 -21.3828125 180.85546875 C-45.78339604 190.48681127 -75.37402555 189.16569552 -99.50390625 179.1796875 C-115.0784321 172.28871642 -130.86890358 159.58059929 -137.38671875 143.3984375 C-136.51668956 139.03139777 -132.2347167 136.43099175 -128.94921875 133.7109375 C-128.01456787 132.92734863 -128.01456787 132.92734863 -127.06103516 132.12792969 C-125.78704355 131.06177077 -124.51067399 129.99844688 -123.23193359 128.93798828 C-121.52450212 127.51339674 -119.83759374 126.06848241 -118.15625 124.61328125 C-117.20105469 123.79988281 -116.24585938 122.98648438 -115.26171875 122.1484375 C-114.41351563 121.42140625 -113.5653125 120.694375 -112.69140625 119.9453125 C-110.38671875 118.3984375 -110.38671875 118.3984375 -106.38671875 118.3984375 C-104.78125 120.26953125 -104.78125 120.26953125 -103.19921875 122.8359375 C-94.98893731 135.06511721 -83.86293019 143.39573321 -69.38671875 146.8984375 C-56.08772478 148.73124003 -42.17495051 148.40894308 -30.76171875 140.5234375 C-26.86532055 137.21889726 -24.70853696 134.21204814 -24.11328125 129.0078125 C-23.90838082 123.74344756 -24.31519347 119.84685342 -27.38671875 115.3984375 C-36.62943509 107.16757887 -49.62235913 104.25314237 -61.31735229 101.12982178 C-109.92937942 88.0685399 -109.92937942 88.0685399 -122.13671875 67.44140625 C-129.57100172 53.23406259 -131.22192964 35.76335713 -126.82421875 20.2109375 C-120.32112297 2.9149845 -109.36644551 -7.42682047 -92.94921875 -15.3515625 C-61.94900116 -28.81451414 -25.28793492 -21.44533989 0 0 Z " fill="#FFFFFF" transform="translate(617.38671875,208.6015625)"/>
<path d="M0 0 C13.53 0 27.06 0 41 0 C41 96.69 41 193.38 41 293 C27.47 293 13.94 293 0 293 C0 196.31 0 99.62 0 0 Z " fill="#FFFFFF" transform="translate(906,98)"/>
<path d="M0 0 C3.78518732 1.4160506 7.19749321 3.15421065 10.69921875 5.16796875 C11.81425781 5.80710205 12.92929687 6.44623535 14.078125 7.10473633 C15.2813281 7.79885553 16.48445126 8.4931133 17.6875 9.1875 C18.92825024 9.90086992 20.16913757 10.61400146 21.41015625 11.3269043 C23.98071648 12.80431679 26.55008003 14.28378274 29.11865234 15.76464844 C32.29390452 17.59463701 35.4728488 19.41807931 38.65351868 21.2386322 C41.60365928 22.92763388 44.55169019 24.62030458 47.5 26.3125 C48.59658936 26.93987061 49.69317871 27.56724121 50.82299805 28.21362305 C52.34920776 29.09207886 52.34920776 29.09207886 53.90625 29.98828125 C54.79634766 30.49915283 55.68644531 31.01002441 56.60351562 31.53637695 C57.39435547 32.01937256 58.18519531 32.50236816 59 33 C59.70006165 33.37995117 60.40012329 33.75990234 61.12139893 34.15136719 C63 36 63 36 63.48101807 39.13212585 C63.4676944 41.06738884 63.4676944 41.06738884 63.45410156 43.04174805 C63.45468567 43.75419678 63.45526978 44.46664551 63.45587158 45.20068359 C63.45308548 47.55485819 63.42197113 49.90776547 63.390625 52.26171875 C63.38316442 53.89410205 63.37747062 55.52649431 63.37347412 57.15888977 C63.35820321 61.45485167 63.31890933 65.7502724 63.2746582 70.04602051 C63.23373662 74.42969441 63.21546979 78.81345577 63.1953125 83.19726562 C63.15241605 91.7984254 63.08414766 100.39914538 63 109 C61.41491022 109.01614092 59.82977233 109.02759705 58.24462891 109.03710938 C56.92055527 109.04744202 56.92055527 109.04744202 55.56973267 109.0579834 C37.49136117 108.65006337 21.12477773 98.64031946 9 86 C8.39800781 85.39414063 7.79601562 84.78828125 7.17578125 84.1640625 C-5.23783925 70.80557325 -10.41810909 52.29360014 -10.21484375 34.40625 C-9.45502833 22.35972196 -6.7729174 10.15937609 0 0 Z " fill="#FFFFFF" transform="translate(325,169)"/>
<path d="M0 0 C7.24555311 5.6387569 12.82185758 12.21716137 17.8984375 19.83203125 C17.79125977 21.84814453 17.79125977 21.84814453 16.8984375 23.83203125 C15.05444336 25.25732422 15.05444336 25.25732422 12.61328125 26.57421875 C11.7018335 27.07606689 10.79038574 27.57791504 9.85131836 28.0949707 C8.85624268 28.62695068 7.86116699 29.15893066 6.8359375 29.70703125 C4.73081872 30.86285093 2.62668296 32.02046245 0.5234375 33.1796875 C-0.56839844 33.77797363 -1.66023438 34.37625977 -2.78515625 34.99267578 C-7.09134972 37.38099009 -11.34538158 39.85219501 -15.59277344 42.34326172 C-17.63075553 43.53851068 -19.67305992 44.7264219 -21.71972656 45.90673828 C-26.01628182 48.38955469 -30.25217287 50.88134325 -34.3359375 53.703125 C-42.38235834 59.16118669 -42.38235834 59.16118669 -46.75390625 58.32421875 C-49.76002385 56.74205159 -52.35487452 54.83153591 -55.1015625 52.83203125 C-57.79160748 51.25956535 -60.54402214 49.80581774 -63.2890625 48.33203125 C-78.07766901 40.16038634 -92.63316398 31.55585752 -107.1015625 22.83203125 C-101.27585642 7.85208326 -87.74278318 -2.07283772 -73.7265625 -8.91796875 C-48.78666278 -19.53143731 -21.78930829 -15.23056184 0 0 Z " fill="#FFFFFF" transform="translate(289.1015625,395.16796875)"/>
<path d="M0 0 C1.83449428 1.04290734 3.67039969 2.08333697 5.5078125 3.12109375 C7.38258063 4.22253452 9.25490386 5.32814534 11.125 6.4375 C17.81628715 10.39005515 24.51948149 14.30964369 31.30078125 18.10546875 C33.09586577 19.11668642 34.89039094 20.12888968 36.68475342 21.14138794 C38.41334303 22.11144351 40.14926395 23.06839745 41.88525391 24.02514648 C42.93245605 24.61755127 43.9796582 25.20995605 45.05859375 25.8203125 C45.98986084 26.33867676 46.92112793 26.85704102 47.88061523 27.39111328 C50 29 50 29 50.89013672 31.05957031 C51.15237882 35.69134857 45.88544897 39.76606686 43 43 C42.25105469 43.8559375 41.50210938 44.711875 40.73046875 45.59375 C28.78467217 58.43102393 11.51948242 66.54649866 -6.04296875 67.3359375 C-26.70548493 67.70132942 -45.92082259 62.63788058 -61.10595703 48.01098633 C-71.20957716 37.90913071 -71.20957716 37.90913071 -74 32 C-72.7220314 28.1660942 -71.52549332 27.89363185 -68.03125 25.99609375 C-66.99371582 25.42544189 -65.95618164 24.85479004 -64.88720703 24.2668457 C-63.76942871 23.66316162 -62.65165039 23.05947754 -61.5 22.4375 C-59.19453533 21.17068416 -56.88984903 19.90245078 -54.5859375 18.6328125 C-53.45510742 18.01180664 -52.32427734 17.39080078 -51.15917969 16.75097656 C-47.10673587 14.50490801 -43.10978774 12.17578079 -39.125 9.8125 C-38.13463745 9.2390686 -38.13463745 9.2390686 -37.12426758 8.65405273 C-33.3730235 6.47097041 -29.75014829 4.1708128 -26.16015625 1.73046875 C-25.33177246 1.19252686 -24.50338867 0.65458496 -23.64990234 0.1003418 C-22.05521383 -0.93606344 -20.48393236 -2.00979945 -18.94384766 -3.12573242 C-11.53044783 -7.8333149 -6.87266854 -4.28126205 0 0 Z " fill="#FFFFFF" transform="translate(256,128)"/>
<path d="M0 0 C0.30191938 9.37914427 0.5325298 18.75660492 0.67355824 28.13955688 C0.74126814 32.49729613 0.83298339 36.85170042 0.98071289 41.20751953 C1.1225401 45.41590744 1.1997985 49.6211017 1.23340416 53.83169556 C1.25732998 55.43326128 1.30406485 57.03466175 1.37449074 58.63485718 C1.58869744 63.70620323 1.56538191 68.13717914 0 73 C-3.93455885 76.82701035 -7.97866808 78.76712863 -13 81 C-15.07402406 82.17955049 -17.13740089 83.37827278 -19.18359375 84.60546875 C-22.38563938 86.44384883 -25.59148944 88.27548278 -28.79736328 90.10717773 C-34.38837335 93.3115478 -39.94424674 96.55358239 -45.43359375 99.9296875 C-46.43656494 100.54175049 -47.43953613 101.15381348 -48.47290039 101.78442383 C-50.37219504 102.94809531 -52.26371675 104.12457361 -54.14624023 105.31518555 C-54.99259033 105.83121338 -55.83894043 106.34724121 -56.7109375 106.87890625 C-57.44618652 107.3385376 -58.18143555 107.79816895 -58.93896484 108.27172852 C-61 109 -61 109 -63.16601562 108.3371582 C-66.13072309 106.17558967 -66.95620304 102.97074871 -68.125 99.625 C-68.38361816 98.90401123 -68.64223633 98.18302246 -68.90869141 97.44018555 C-75.2801727 79.05746327 -74.4565097 59.64004833 -66.4375 41.8359375 C-56.92639789 23.07218714 -42.23040761 9.69560696 -22.1875 3.0703125 C-14.79184752 0.91324719 -7.68407651 -0.02294935 0 0 Z " fill="#FFFFFF" transform="translate(388,298)"/>
<path d="M0 0 C2.41196073 3.11557043 4.04163887 6.04029385 5.5625 9.6875 C5.97628906 10.66074219 6.39007813 11.63398438 6.81640625 12.63671875 C13.18271488 30.72712051 11.49563796 51.2198694 3.62207031 68.50488281 C-4.64345189 85.63756098 -18.89642483 98.89827502 -36.89379883 105.21191406 C-43.75022543 107.50668358 -49.95896638 109.05755401 -57.19873047 109.02294922 C-58.09816376 109.01963593 -58.99759705 109.01632263 -59.92428589 109.01290894 C-60.60927155 109.00864899 -61.2942572 109.00438904 -62 109 C-62.30191938 99.62085573 -62.5325298 90.24339508 -62.67355824 80.86044312 C-62.74126814 76.50270387 -62.83298339 72.14829958 -62.98071289 67.79248047 C-63.1225401 63.58409256 -63.1997985 59.3788983 -63.23340416 55.16830444 C-63.25732998 53.56673872 -63.30406485 51.96533825 -63.37449074 50.36514282 C-63.58868918 45.29399226 -63.56339376 40.86317306 -62 36 C-58.08085145 32.17765334 -54.02347337 30.20539183 -49 28 C-47.75000537 27.29257413 -46.50848338 26.56924339 -45.28710938 25.81347656 C-44.31580078 25.26143555 -43.34449219 24.70939453 -42.34375 24.140625 C-41.22838867 23.50511719 -40.11302734 22.86960938 -38.96386719 22.21484375 C-37.24925293 21.24224609 -37.24925293 21.24224609 -35.5 20.25 C-34.28535236 19.55882112 -33.07083606 18.86741139 -31.85644531 18.17578125 C-29.41592642 16.7861188 -26.97481154 15.39751284 -24.53320312 14.00976562 C-19.26694732 11.01559503 -14.00873607 8.00735116 -8.75 5 C-7.0364964 4.02076672 -5.32295895 3.04159267 -3.609375 2.0625 C-2.90780273 1.66160156 -2.20623047 1.26070312 -1.48339844 0.84765625 C-0.99387695 0.56792969 -0.50435547 0.28820312 0 0 Z " fill="#FFFFFF" transform="translate(163,169)"/>
<path d="M0 0 C2.04326382 0.13895633 4.08616589 0.2832371 6.12890625 0.4296875 C7.26658447 0.50944824 8.4042627 0.58920898 9.57641602 0.67138672 C23.9833793 2.0542415 37.26252905 8.37734844 48 18 C48.82113281 18.71671875 49.64226562 19.4334375 50.48828125 20.171875 C63.08593116 31.87105823 71.62519919 49.09279549 72.3359375 66.3828125 C72.58049576 82.0196783 70.93640591 95.17634217 63 109 C54.06254073 104.72248384 45.49996396 100.03674422 36.99609375 94.9609375 C29.68881301 90.60604738 22.29241429 86.40217334 14.90917969 82.17773438 C13.30864746 81.25831055 13.30864746 81.25831055 11.67578125 80.3203125 C10.72614502 79.77648926 9.77650879 79.23266602 8.7980957 78.67236328 C7.87472412 78.1204834 6.95135254 77.56860352 6 77 C4.44950706 76.17962753 4.44950706 76.17962753 2.86769104 75.34268188 C0 73 0 73 -0.7215271 69.74761963 C-0.70820343 68.45966492 -0.69487976 67.17171021 -0.68115234 65.84472656 C-0.6820285 65.13213181 -0.68290466 64.41953705 -0.68380737 63.68534851 C-0.67963553 61.3359819 -0.63301179 58.98949092 -0.5859375 56.640625 C-0.5747437 55.00967977 -0.56620438 53.37871433 -0.56021118 51.7477417 C-0.5373267 47.45969721 -0.47840856 43.17287659 -0.4119873 38.88531494 C-0.35055547 34.50834714 -0.32319436 30.13118111 -0.29296875 25.75390625 C-0.22866332 17.16870984 -0.12629048 8.58450725 0 0 Z " fill="#FFFFFF" transform="translate(101,298)"/>
<path d="M0 0 C2.64 0 5.28 0 8 0 C9.98 4.29 11.96 8.58 14 13 C16.31954564 9.90727248 17.71720383 7.69759103 19.1875 4.25 C19.53167969 3.45078125 19.87585937 2.6515625 20.23046875 1.828125 C20.61138672 0.92320312 20.61138672 0.92320312 21 0 C23.64 0 26.28 0 29 0 C29 10.23 29 20.46 29 31 C26.69 31 24.38 31 22 31 C21.505 24.565 21.505 24.565 21 18 C19.68 20.31 18.36 22.62 17 25 C15.35 25 13.7 25 12 25 C10.68 22.69 9.36 20.38 8 18 C7.67 22.29 7.34 26.58 7 31 C4.69 31 2.38 31 0 31 C0 20.77 0 10.54 0 0 Z " fill="#FFFFFF" transform="translate(1671,177)"/>
<path d="M0 0 C7.59 0 15.18 0 23 0 C23 1.98 23 3.96 23 6 C20.36 6 17.72 6 15 6 C15 14.25 15 22.5 15 31 C12.69 31 10.38 31 8 31 C8 22.75 8 14.5 8 6 C5.36 6 2.72 6 0 6 C0 4.02 0 2.04 0 0 Z " fill="#FFFFFF" transform="translate(1641,177)"/>
</svg>
